<svg width="15.000000" height="15.000000" viewBox="0 0 15 15" fill="none"
    xmlns="http://www.w3.org/2000/svg" xmlns:xlink="http://www.w3.org/1999/xlink">
    <desc>
        Created with Pixso.
    </desc>
    <defs />
    <path id="Vector"
        d="M14.16 8.33L0.83 8.33C0.37 8.33 0 8.7 0 9.16L0 14.16C0 14.62 0.37 15 0.83 15L14.16 15C14.62 15 15 14.62 15 14.16L15 9.16C15 8.7 14.62 8.33 14.16 8.33ZM3.33 13.33C2.41 13.33 1.66 12.58 1.66 11.66C1.66 10.75 2.41 10 3.33 10C4.25 10 5 10.75 5 11.66C5 12.58 4.25 13.33 3.33 13.33ZM14.16 0L0.83 0C0.37 0 0 0.37 0 0.83L0 5.83C0 6.29 0.37 6.66 0.83 6.66L14.16 6.66C14.62 6.66 15 6.29 15 5.83L15 0.83C15 0.37 14.62 0 14.16 0ZM3.33 5C2.41 5 1.66 4.25 1.66 3.33C1.66 2.41 2.41 1.66 3.33 1.66C4.25 1.66 5 2.41 5 3.33C5 4.25 4.25 5 3.33 5Z"
        fill="#14B890" fill-opacity="1.000000" fill-rule="nonzero" />
</svg>