<svg width="11.659912" height="11.659973" viewBox="0 0 11.6599 11.66" fill="none" xmlns="http://www.w3.org/2000/svg" xmlns:xlink="http://www.w3.org/1999/xlink">
	<desc>
			Created with Pixso.
	</desc>
	<defs/>
	<path id="Vector" d="M8.33 7.33L7.8 7.33L7.62 7.15C8.27 6.39 8.66 5.4 8.66 4.33C8.66 1.94 6.72 0 4.33 0C1.93 0 0 1.94 0 4.33C0 6.72 1.93 8.66 4.33 8.66C5.4 8.66 6.39 8.27 7.15 7.62L7.33 7.8L7.33 8.33L10.66 11.66L11.65 10.66L8.33 7.33ZM4.33 7.33C2.67 7.33 1.33 5.99 1.33 4.33C1.33 2.67 2.67 1.33 4.33 1.33C5.99 1.33 7.33 2.67 7.33 4.33C7.33 5.99 5.99 7.33 4.33 7.33Z" fill="#141A18" fill-opacity="0.600000" fill-rule="nonzero"/>
</svg>
